<svg xmlns="http://www.w3.org/2000/svg" xmlns:svg="http://www.w3.org/2000/svg" id="svg3353" width="1803" height="1803" version="1.1" viewBox="0 0 1803 1803"><metadata id="metadata3358"/><g style="stroke-width:3;stroke-miterlimit:4;stroke-dasharray:none" id="g7586" transform="translate(901.5,901.5)"><path style="fill:none;stroke:#000;stroke-width:3;stroke-miterlimit:4;stroke-dasharray:none" id="path7588" d="M 4.2083457e-7,900 A 15.705773,900 0 0 1 -13.601599,450.00001 15.705773,900 0 0 1 -13.601599,-450 15.705773,900 0 0 1 3.0807361e-7,-900" transform="matrix(0.99999995,3.0463287e-4,-3.0463287e-4,0.99999995,0,0)"/><path style="fill:none;stroke:#000;stroke-width:3;stroke-miterlimit:4;stroke-dasharray:none" id="path7590" d="M 3.4390577e-6,900 A 128.34749,900 0 0 1 -111.15218,450.00001 128.34749,900 0 0 1 -111.15219,-450 128.34749,900 0 0 1 2.5175758e-6,-900" transform="matrix(0.99999684,0.00251492,-0.00251492,0.99999684,0,0)"/><path style="fill:none;stroke:#000;stroke-width:3;stroke-miterlimit:4;stroke-dasharray:none" id="path7592" d="M 6.4030452e-6,900 A 238.9651,900 0 0 1 -206.94985,450.00001 238.9651,900 0 0 1 -206.94985,-450 238.9651,900 0 0 1 4.6873746e-6,-900" transform="matrix(0.99998845,0.00480714,-0.00480714,0.99998845,0,0)"/><path style="fill:none;stroke:#000;stroke-width:3;stroke-miterlimit:4;stroke-dasharray:none" id="path7594" d="M 9.2660535e-6,900 A 345.81412,900 0 0 1 -299.48381,450.00001 345.81412,900 0 0 1 -299.48381,-450 345.81412,900 0 0 1 6.7832511e-6,-900" transform="matrix(0.99997361,0.00726454,-0.00726454,0.99997361,0,0)"/><path style="fill:none;stroke:#000;stroke-width:3;stroke-miterlimit:4;stroke-dasharray:none" id="path7596" d="M 1.1982931e-5,900 A 447.20944,900 0 0 1 -387.29474,450.00001 447.20944,900 0 0 1 -387.29474,-450 447.20944,900 0 0 1 8.7721519e-6,-900" transform="matrix(0.99995005,0.00999459,-0.00999459,0.99995005,0,0)"/><path style="fill:none;stroke:#000;stroke-width:3;stroke-miterlimit:4;stroke-dasharray:none" id="path7598" d="M 1.451083e-5,900 A 541.552,900 0 0 1 -468.99779,450.00001 541.552,900 0 0 1 -468.99779,-450 541.552,900 0 0 1 1.062271e-5,-900" transform="matrix(0.99991353,0.01315019,-0.01315019,0.99991353,0,0)"/><path style="fill:none;stroke:#000;stroke-width:3;stroke-miterlimit:4;stroke-dasharray:none" id="path7600" d="M 1.6809886e-5,900 A 627.354,900 0 0 1 -543.3045,450.00001 627.354,900 0 0 1 -543.3045,-450 627.354,900 0 0 1 1.2305743e-5,-900" transform="matrix(0.99985601,0.01696928,-0.01696928,0.99985601,0,0)"/><path style="fill:none;stroke:#000;stroke-width:3;stroke-miterlimit:4;stroke-dasharray:none" id="path7602" d="M 1.8843841e-5,900 A 703.26233,900 0 0 1 -609.04304,450.00001 703.26233,900 0 0 1 -609.04304,-450 703.26233,900 0 0 1 1.3794709e-5,-900" transform="matrix(0.99976111,0.02185703,-0.02185703,0.99976111,0,0)"/><path style="fill:none;stroke:#000;stroke-width:3;stroke-miterlimit:4;stroke-dasharray:none" id="path7604" d="M 2.0580616e-5,900 A 768.07971,900 0 0 1 -665.17654,450.00001 768.07971,900 0 0 1 -665.17654,-450 768.07971,900 0 0 1 1.5066122e-5,-900" transform="matrix(0.99959151,0.02857995,-0.02857995,0.99959151,0,0)"/><path style="fill:none;stroke:#000;stroke-width:3;stroke-miterlimit:4;stroke-dasharray:none" id="path7606" d="M 2.1992824e-5,900 A 820.78406,900 0 0 1 -710.81984,450.00001 820.78406,900 0 0 1 -710.81984,-450 820.78406,900 0 0 1 1.6099934e-5,-900" transform="matrix(0.99924684,0.03880412,-0.03880412,0.99924684,0,0)"/><path style="fill:none;stroke:#000;stroke-width:3;stroke-miterlimit:4;stroke-dasharray:none" id="path7608" d="M 2.3058193e-5,900 A 860.54419,900 0 0 1 -745.25312,450.00001 860.54419,900 0 0 1 -745.25313,-450 860.54419,900 0 0 1 1.6879841e-5,-900" transform="matrix(0.99837467,0.05699147,-0.05699147,0.99837467,0,0)"/><path style="fill:none;stroke:#000;stroke-width:3;stroke-miterlimit:4;stroke-dasharray:none" id="path7610" d="M 2.375992e-5,900 A 886.73303,900 0 0 1 -767.93333,450.00001 886.73303,900 0 0 1 -767.93333,-450 886.73303,900 0 0 1 1.7393543e-5,-900" transform="matrix(0.99493435,0.10052683,-0.10052683,0.99493435,0,0)"/><path style="fill:none;stroke:#000;stroke-width:3;stroke-miterlimit:4;stroke-dasharray:none" id="path7612" d="M 2.4086939e-5,900 A 898.93756,900 0 0 1 -778.50276,450.00001 898.93756,900 0 0 1 -778.50276,-450 898.93756,900 0 0 1 1.7632939e-5,-900" transform="matrix(0.93343426,0.3587485,-0.3587485,0.93343426,0,0)"/><path style="fill:none;stroke:#000;stroke-width:3;stroke-miterlimit:4;stroke-dasharray:none" id="path7614" d="M 1.7594253e-5,-900 A 896.96533,900 0 0 1 896.96533,-3.2308142e-6 896.96533,900 0 0 1 2.4034094e-5,900" transform="matrix(0.97727329,-0.21198329,0.21198329,0.97727329,0,0)"/><path style="fill:none;stroke:#000;stroke-width:3;stroke-miterlimit:4;stroke-dasharray:none" id="path7616" d="M 1.7278096e-5,-900 A 880.84747,900 0 0 1 880.84747,-3.2308142e-6 880.84747,900 0 0 1 2.3602218e-5,900" transform="matrix(0.9965287,-0.08324997,0.08324997,0.9965287,0,0)"/><path style="fill:none;stroke:#000;stroke-width:3;stroke-miterlimit:4;stroke-dasharray:none" id="path7618" d="M 1.6689454e-5,-900 A 850.83813,900 0 0 1 850.83813,-3.2308142e-6 850.83813,900 0 0 1 2.279812e-5,900" transform="matrix(0.99871796,-0.05062049,0.05062049,0.99871796,0,0)"/><path style="fill:none;stroke:#000;stroke-width:3;stroke-miterlimit:4;stroke-dasharray:none" id="path7620" d="M 1.5837608e-5,-900 A 807.41052,900 0 0 1 807.41052,-3.2308142e-6 807.41052,900 0 0 1 2.1634482e-5,900" transform="matrix(0.9993716,-0.03544569,0.03544569,0.9993716,0,0)"/><path style="fill:none;stroke:#000;stroke-width:3;stroke-miterlimit:4;stroke-dasharray:none" id="path7622" d="M 1.4735995e-5,-900 A 751.24963,900 0 0 1 751.24963,-3.2308142e-6 751.24963,900 0 0 1 2.0129657e-5,900" transform="matrix(0.99964991,-0.0264587,0.0264587,0.99964991,0,0)"/><path style="fill:none;stroke:#000;stroke-width:3;stroke-miterlimit:4;stroke-dasharray:none" id="path7624" d="M 1.3401986e-5,-900 A 683.24109,900 0 0 1 683.24109,-3.2308142e-6 683.24109,900 0 0 1 1.8307375e-5,900" transform="matrix(0.99979276,-0.02035785,0.02035785,0.99979276,0,0)"/><path style="fill:none;stroke:#000;stroke-width:3;stroke-miterlimit:4;stroke-dasharray:none" id="path7626" d="M 1.185662e-5,-900 A 604.45746,900 0 0 1 604.45746,-3.2308142e-6 604.45746,900 0 0 1 1.6196376e-5,900" transform="matrix(0.99987481,-0.01582289,0.01582289,0.99987481,0,0)"/><path style="fill:none;stroke:#000;stroke-width:3;stroke-miterlimit:4;stroke-dasharray:none" id="path7628" d="M 1.0124269e-5,-900 A 516.14117,900 0 0 1 516.14117,-3.2308142e-6 516.14117,900 0 0 1 1.382995e-5,900" transform="matrix(0.99992534,-0.01221939,0.01221939,0.99992534,0,0)"/><path style="fill:none;stroke:#000;stroke-width:3;stroke-miterlimit:4;stroke-dasharray:none" id="path7630" d="M 8.2322526e-6,-900 A 419.68506,900 0 0 1 419.68506,-3.2308142e-6 419.68506,900 0 0 1 1.1245418e-5,900" transform="matrix(0.99995767,-0.00920122,0.00920122,0.99995767,0,0)"/><path style="fill:none;stroke:#000;stroke-width:3;stroke-miterlimit:4;stroke-dasharray:none" id="path7632" d="M 6.2104084e-6,-900 A 316.61026,900 0 0 1 316.61026,-3.2308142e-6 316.61026,900 0 0 1 8.4835394e-6,900" transform="matrix(0.99997848,-0.00655979,0.00655979,0.99997848,0,0)"/><path style="fill:none;stroke:#000;stroke-width:3;stroke-miterlimit:4;stroke-dasharray:none" id="path7634" d="M 4.0906227e-6,-900 A 208.54234,900 0 0 1 208.54234,-3.2308142e-6 208.54234,900 0 0 1 5.5878707e-6,900" transform="matrix(0.99999136,-0.00415771,0.00415771,0.99999136,0,0)"/><path style="fill:none;stroke:#000;stroke-width:3;stroke-miterlimit:4;stroke-dasharray:none" id="path7636" d="M 1.906326e-6,-900 A 97.185616,900 0 0 1 97.185616,-3.2308142e-6 97.185616,900 0 0 1 2.6040786e-6,900" transform="matrix(0.9999982,-0.00189593,0.00189593,0.9999982,0,0)"/></g><g style="stroke-width:3;stroke-miterlimit:4;stroke-dasharray:none" id="g7638" transform="translate(901.5,901.5)"><path style="fill:none;stroke:#000;stroke-width:3;stroke-miterlimit:4;stroke-dasharray:none" id="path7640" d="M 53.139803,898.43012 A 55.404816,0.96794736 0 0 1 -1.2856745e-6,899.12414 55.404816,0.96794736 0 0 1 -53.139804,898.43012"/><path style="fill:none;stroke:#000;stroke-width:3;stroke-miterlimit:4;stroke-dasharray:none" id="path7642" d="M 109.4951,893.31465 A 110.59946,1.9312267 0 0 1 -9.0747998e-7,894.97365 110.59946,1.9312267 0 0 1 -109.4951,893.31465"/><path style="fill:none;stroke:#000;stroke-width:3;stroke-miterlimit:4;stroke-dasharray:none" id="path7644" d="M 164.65203,884.81067 A 165.37457,2.8871841 0 0 1 -2.101101e-6,887.42826 165.37457,2.8871841 0 0 1 -164.65203,884.81067"/><path style="fill:none;stroke:#000;stroke-width:3;stroke-miterlimit:4;stroke-dasharray:none" id="path7646" d="M 218.99305,872.95028 A 219.52235,3.8321931 0 0 1 -3.3378601e-6,876.51652 219.52235,3.8321931 0 0 1 -218.99305,872.95028"/><path style="fill:none;stroke:#000;stroke-width:3;stroke-miterlimit:4;stroke-dasharray:none" id="path7648" d="M 272.42639,857.77847 A 272.8374,4.7626691 0 0 1 6.7649751e-6,862.27982 272.8374,4.7626691 0 0 1 -272.42639,857.77847"/><path style="fill:none;stroke:#000;stroke-width:3;stroke-miterlimit:4;stroke-dasharray:none" id="path7650" d="M 324.78731,839.35287 A 325.11749,5.6750827 0 0 1 -3.4804164e-6,844.77225 325.11749,5.6750827 0 0 1 -324.78731,839.35287"/><path style="fill:none;stroke:#000;stroke-width:3;stroke-miterlimit:4;stroke-dasharray:none" id="path7652" d="M 375.89348,817.74331 A 376.16431,6.5659723 0 0 1 -4.9672886e-6,824.06017 376.16431,6.5659723 0 0 1 -375.89348,817.74331"/><path style="fill:none;stroke:#000;stroke-width:3;stroke-miterlimit:4;stroke-dasharray:none" id="path7654" d="M 425.55921,793.0318 A 425.78421,7.4319592 0 0 1 -7.7514455e-6,800.22218 425.78421,7.4319592 0 0 1 -425.55921,793.0318"/><path style="fill:none;stroke:#000;stroke-width:3;stroke-miterlimit:4;stroke-dasharray:none" id="path7656" d="M 473.60064,765.31199 A 473.78894,8.2697573 0 0 1 4.8776081e-6,773.34861 473.78894,8.2697573 0 0 1 -473.60064,765.31199"/><path style="fill:none;stroke:#000;stroke-width:3;stroke-miterlimit:4;stroke-dasharray:none" id="path7658" d="M 519.83835,734.68913 A 519.99646,9.076189 0 0 1 3.7933204e-6,743.54152 519.99646,9.076189 0 0 1 -519.83835,734.68913"/><path style="fill:none;stroke:#000;stroke-width:3;stroke-miterlimit:4;stroke-dasharray:none" id="path7660" d="M 564.09869,701.27936 A 564.23145,9.848196 0 0 1 -6.3222717e-6,710.91393 564.23145,9.848196 0 0 1 -564.09869,701.27936"/><path style="fill:none;stroke:#000;stroke-width:3;stroke-miterlimit:4;stroke-dasharray:none" id="path7662" d="M 606.21489,665.20935 A 606.32605,10.58285 0 0 1 -3.1559896e-6,675.58956 606.32605,10.58285 0 0 1 -606.21489,665.20935"/><path style="fill:none;stroke:#000;stroke-width:3;stroke-miterlimit:4;stroke-dasharray:none" id="path7664" d="M 646.02817,626.61599 A 646.12073,11.277362 0 0 1 -5.6245478e-6,637.70247 646.12073,11.277362 0 0 1 -646.02817,626.61599"/><path style="fill:none;stroke:#000;stroke-width:3;stroke-miterlimit:4;stroke-dasharray:none" id="path7666" d="M 683.38799,585.64568 A 683.46442,11.929099 0 0 1 3.9606055e-6,597.39638 683.46442,11.929099 0 0 1 -683.38799,585.64568"/><path style="fill:none;stroke:#000;stroke-width:3;stroke-miterlimit:4;stroke-dasharray:none" id="path7668" d="M 718.15312,542.45381 A 718.21552,12.535589 0 0 1 6.675739e-6,554.82416 718.21552,12.535589 0 0 1 -718.15312,542.45381"/><path style="fill:none;stroke:#000;stroke-width:3;stroke-miterlimit:4;stroke-dasharray:none" id="path7670" d="M 750.19194,497.20422 A 750.24213,13.094531 0 0 1 -1.8534809e-5,510.1473 750.24213,13.094531 0 0 1 -750.19194,497.20422"/><path style="fill:none;stroke:#000;stroke-width:3;stroke-miterlimit:4;stroke-dasharray:none" id="path7672" d="M 779.38327,450.06855 A 779.42285,13.603805 0 0 1 -1.3289965e-6,463.53526 779.42285,13.603805 0 0 1 -779.38327,450.06855"/><path style="fill:none;stroke:#000;stroke-width:3;stroke-miterlimit:4;stroke-dasharray:none" id="path7674" d="M 805.61654,401.22564 A 805.64697,14.061479 0 0 1 -1.8292298e-5,415.1649 805.64697,14.061479 0 0 1 -805.61654,401.22564"/><path style="fill:none;stroke:#000;stroke-width:3;stroke-miterlimit:4;stroke-dasharray:none" id="path7676" d="M 828.79232,350.86072 A 828.81494,14.465816 0 0 1 -3.6924564e-6,365.21966 828.81494,14.465816 0 0 1 -828.79232,350.86072"/><path style="fill:none;stroke:#000;stroke-width:3;stroke-miterlimit:4;stroke-dasharray:none" id="path7678" d="M 848.82293,299.16489 A 848.83899,14.815283 0 0 1 -5.3944594e-6,313.88904 848.83899,14.815283 0 0 1 -848.82293,299.16489"/><path style="fill:none;stroke:#000;stroke-width:3;stroke-miterlimit:4;stroke-dasharray:none" id="path7680" d="M 865.63239,246.33422 A 865.64307,15.108555 0 0 1 1.6875622e-5,261.36774 865.64307,15.108555 0 0 1 -865.63239,246.33422"/><path style="fill:none;stroke:#000;stroke-width:3;stroke-miterlimit:4;stroke-dasharray:none" id="path7682" d="M 879.15709,192.56911 A 879.16351,15.344519 0 0 1 1.1468597e-5,207.85497 879.16351,15.344519 0 0 1 -879.15709,192.56911"/><path style="fill:none;stroke:#000;stroke-width:3;stroke-miterlimit:4;stroke-dasharray:none" id="path7684" d="M 889.34567,138.07352 A 889.34894,15.522279 0 0 1 1.0222974e-5,153.55374 889.34894,15.522279 0 0 1 -889.34567,138.07352"/><path style="fill:none;stroke:#000;stroke-width:3;stroke-miterlimit:4;stroke-dasharray:none" id="path7686" d="M 896.15959,83.054176 A 896.16077,15.641162 0 0 1 1.2948597e-6,98.670039 896.16077,15.641162 0 0 1 -896.15959,83.054176"/><path style="fill:none;stroke:#000;stroke-width:3;stroke-miterlimit:4;stroke-dasharray:none" id="path7688" d="M 899.57299,27.719776 A 899.57312,15.700716 0 0 1 -1.4051425e-5,43.412048 899.57312,15.700716 0 0 1 -899.57299,27.719775"/><path style="fill:none;stroke:#000;stroke-width:3;stroke-miterlimit:4;stroke-dasharray:none" id="path7690" d="m 899.57299,-27.719776 a 899.57312,15.700716 0 0 1 -449.64676,13.604255 899.57312,15.700716 0 0 1 -899.85241,0 899.57312,15.700716 0 0 1 -449.64681,-13.604254"/><path style="fill:none;stroke:#000;stroke-width:3;stroke-miterlimit:4;stroke-dasharray:none" id="path7692" d="m 896.15959,-83.054175 a 896.16077,15.641162 0 0 1 -447.66086,13.566723 896.16077,15.641162 0 0 1 -896.99749,0 896.16077,15.641162 0 0 1 -447.66083,-13.566724"/><path style="fill:none;stroke:#000;stroke-width:3;stroke-miterlimit:4;stroke-dasharray:none" id="path7694" d="m 889.34567,-138.07352 a 889.34894,15.522279 0 0 1 -443.97577,13.47773 889.34894,15.522279 0 0 1 -890.73983,0 889.34894,15.522279 0 0 1 -443.97574,-13.47773"/><path style="fill:none;stroke:#000;stroke-width:3;stroke-miterlimit:4;stroke-dasharray:none" id="path7696" d="m 879.15709,-192.56911 a 879.16351,15.344519 0 0 1 -438.60553,13.33761 879.16351,15.344519 0 0 1 -881.10315,0 879.16351,15.344519 0 0 1 -438.6055,-13.33761"/><path style="fill:none;stroke:#000;stroke-width:3;stroke-miterlimit:4;stroke-dasharray:none" id="path7698" d="m 865.63239,-246.33422 a 865.64307,15.108555 0 0 1 -431.57041,13.1469 865.64307,15.108555 0 0 1 -868.12399,0 865.64307,15.108555 0 0 1 -431.57038,-13.1469"/><path style="fill:none;stroke:#000;stroke-width:3;stroke-miterlimit:4;stroke-dasharray:none" id="path7700" d="m 848.82293,-299.16489 a 848.83899,14.815283 0 0 1 -422.89708,12.90633 848.83899,14.815283 0 0 1 -851.85166,0 848.83899,14.815283 0 0 1 -422.89712,-12.90633"/><path style="fill:none;stroke:#000;stroke-width:3;stroke-miterlimit:4;stroke-dasharray:none" id="path7702" d="m 828.79232,-350.86072 a 828.81494,14.465816 0 0 1 -412.6184,12.61679 828.81494,14.465816 0 0 1 -832.34779,0 828.81494,14.465816 0 0 1 -412.61845,-12.61679"/><path style="fill:none;stroke:#000;stroke-width:3;stroke-miterlimit:4;stroke-dasharray:none" id="path7704" d="m 805.61654,-401.22564 a 805.64697,14.061479 0 0 1 -400.77332,12.27939 805.64697,14.061479 0 0 1 -809.68646,0 805.64697,14.061479 0 0 1 -400.7733,-12.27939"/><path style="fill:none;stroke:#000;stroke-width:3;stroke-miterlimit:4;stroke-dasharray:none" id="path7706" d="m 779.38327,-450.06855 a 779.42285,13.603805 0 0 1 -387.40655,11.89542 779.42285,13.603805 0 0 1 -783.95347,0 779.42285,13.603805 0 0 1 -387.40652,-11.89542"/><path style="fill:none;stroke:#000;stroke-width:3;stroke-miterlimit:4;stroke-dasharray:none" id="path7708" d="m 750.19194,-497.20422 a 750.24213,13.094531 0 0 1 -372.56867,11.46632 750.24213,13.094531 0 0 1 -755.24657,0 750.24213,13.094531 0 0 1 -372.56864,-11.46632"/><path style="fill:none;stroke:#000;stroke-width:3;stroke-miterlimit:4;stroke-dasharray:none" id="path7710" d="m 718.15312,-542.45381 a 718.21552,12.535589 0 0 1 -356.31585,10.99373 718.21552,12.535589 0 0 1 -723.67457,0 718.21552,12.535589 0 0 1 -356.31582,-10.99373"/><path style="fill:none;stroke:#000;stroke-width:3;stroke-miterlimit:4;stroke-dasharray:none" id="path7712" d="m 683.38799,-585.64568 a 683.46442,11.929099 0 0 1 -338.70942,10.47944 683.46442,11.929099 0 0 1 -689.35717,0 683.46442,11.929099 0 0 1 -338.70939,-10.47944"/><path style="fill:none;stroke:#000;stroke-width:3;stroke-miterlimit:4;stroke-dasharray:none" id="path7714" d="m 646.02817,-626.61599 a 646.12073,11.277362 0 0 1 -319.81586,9.92539 646.12073,11.277362 0 0 1 -652.42459,0 646.12073,11.277362 0 0 1 -319.81589,-9.92539"/><path style="fill:none;stroke:#000;stroke-width:3;stroke-miterlimit:4;stroke-dasharray:none" id="path7716" d="m 606.21489,-665.20935 a 606.32605,10.58285 0 0 1 -299.70647,9.33369 606.32605,10.58285 0 0 1 -613.01681,0 606.32605,10.58285 0 0 1 -299.7065,-9.33369"/><path style="fill:none;stroke:#000;stroke-width:3;stroke-miterlimit:4;stroke-dasharray:none" id="path7718" d="m 564.09869,-701.27936 a 564.23145,9.848196 0 0 1 -278.45698,8.70658 564.23145,9.848196 0 0 1 -571.28339,0 564.23145,9.848196 0 0 1 -278.45701,-8.70658"/><path style="fill:none;stroke:#000;stroke-width:3;stroke-miterlimit:4;stroke-dasharray:none" id="path7720" d="m 519.83835,-734.68913 a 519.99646,9.076189 0 0 1 -256.14716,8.04644 519.99646,9.076189 0 0 1 -527.3824,0 519.99646,9.076189 0 0 1 -256.14714,-8.04644"/><path style="fill:none;stroke:#000;stroke-width:3;stroke-miterlimit:4;stroke-dasharray:none" id="path7722" d="m 473.60064,-765.31199 a 473.78894,8.2697573 0 0 1 -232.86049,7.35578 473.78894,8.2697573 0 0 1 -481.48032,0 473.78894,8.2697573 0 0 1 -232.86047,-7.35578"/><path style="fill:none;stroke:#000;stroke-width:3;stroke-miterlimit:4;stroke-dasharray:none" id="path7724" d="m 425.55921,-793.0318 a 425.78421,7.4319592 0 0 1 -208.68362,6.6372 425.78421,7.4319592 0 0 1 -433.75116,0 425.78421,7.4319592 0 0 1 -208.68364,-6.6372"/><path style="fill:none;stroke:#000;stroke-width:3;stroke-miterlimit:4;stroke-dasharray:none" id="path7726" d="m 375.89348,-817.74331 a 376.16431,6.5659723 0 0 1 -183.70563,5.89342 376.16431,6.5659723 0 0 1 -384.37568,0 376.16431,6.5659723 0 0 1 -183.70565,-5.89342"/><path style="fill:none;stroke:#000;stroke-width:3;stroke-miterlimit:4;stroke-dasharray:none" id="path7728" d="m 324.78731,-839.35287 a 325.11749,5.6750827 0 0 1 -158.01691,5.12728 325.11749,5.6750827 0 0 1 -333.54079,0 325.11749,5.6750827 0 0 1 -158.01692,-5.12728"/><path style="fill:none;stroke:#000;stroke-width:3;stroke-miterlimit:4;stroke-dasharray:none" id="path7730" d="m 272.42639,-857.77847 a 272.8374,4.7626691 0 0 1 -131.70705,4.34165 272.8374,4.7626691 0 0 1 -281.43869,0 272.8374,4.7626691 0 0 1 -131.70704,-4.34165"/><path style="fill:none;stroke:#000;stroke-width:3;stroke-miterlimit:4;stroke-dasharray:none" id="path7732" d="m 218.99305,-872.95028 a 219.52235,3.8321931 0 0 1 -104.86015,3.53948 219.52235,3.8321931 0 0 1 -228.26579,0 219.52235,3.8321931 0 0 1 -104.86016,-3.53948"/><path style="fill:none;stroke:#000;stroke-width:3;stroke-miterlimit:4;stroke-dasharray:none" id="path7734" d="m 164.65203,-884.81067 a 165.37457,2.8871841 0 0 1 -77.541383,2.72376 165.37457,2.8871841 0 0 1 -174.221285,0 165.37457,2.8871841 0 0 1 -77.541392,-2.72376"/><path style="fill:none;stroke:#000;stroke-width:3;stroke-miterlimit:4;stroke-dasharray:none" id="path7736" d="m 109.4951,-893.31465 a 110.59946,1.9312267 0 0 1 -49.74286,1.89736 110.59946,1.9312267 0 0 1 -119.504475,0 110.59946,1.9312267 0 0 1 -49.742865,-1.89736"/><path style="fill:none;stroke:#000;stroke-width:3;stroke-miterlimit:4;stroke-dasharray:none" id="path7738" d="m 53.139803,-898.43012 a 55.404816,0.96794736 0 0 1 -20.981928,1.06215 55.404816,0.96794736 0 0 1 -64.315752,0 55.404816,0.96794736 0 0 1 -20.981925,-1.06215"/></g><circle style="fill:none;stroke:#000;stroke-width:3;stroke-miterlimit:4;stroke-dasharray:none" id="path7740" cx="901.5" cy="901.5" r="900"/></svg>