<svg xmlns="http://www.w3.org/2000/svg" xmlns:ns1="http://sozi.baierouge.fr" xmlns:svg="http://www.w3.org/2000/svg" xmlns:xlink="http://www.w3.org/1999/xlink" id="svg2899" x="0" y="0" version="1.0" viewBox="0 0 340.95 177.36"><g id="layer1" transform="translate(-16.499 -5.0704)"><rect id="rect2909" width="333.26" height="173.61" x="19.396" y="110.96" rx="6" ry="6" transform="translate(1.4739 -104.01)" style="stroke-linejoin:round;stroke:#000;stroke-linecap:round;stroke-width:3.75;fill:#fff"/><path id="path2913" d="m154.75 196.49c0.01 36.58-29.64 66.24-66.217 66.24-36.576 0-66.226-29.66-66.22-66.24-0.006-36.57 29.644-66.23 66.22-66.23 36.577 0 66.227 29.66 66.217 66.23z" transform="matrix(.82609 0 0 .82609 31.911 -57.781)" style="fill:#000"/><path id="path2920" d="m154.75 196.49c0.01 36.58-29.64 66.24-66.217 66.24-36.576 0-66.226-29.66-66.22-66.24-0.006-36.57 29.644-66.23 66.22-66.23 36.577 0 66.227 29.66 66.217 66.23z" transform="matrix(.54891 0 0 .54891 221.45 -3.3177)" style="fill:#000"/><path id="path2921" d="m154.75 196.49c0.01 36.58-29.64 66.24-66.217 66.24-36.576 0-66.226-29.66-66.22-66.24-0.006-36.57 29.644-66.23 66.22-66.23 36.577 0 66.227 29.66 66.217 66.23z" transform="matrix(.22826 0 0 .22826 249.84 59.688)" style="stroke-linejoin:round;stroke:#fff;stroke-linecap:round;stroke-width:16.429;fill:#969696"/><path id="path2922" d="m154.75 196.49c0.01 36.58-29.64 66.24-66.217 66.24-36.576 0-66.226-29.66-66.22-66.24-0.006-36.57 29.644-66.23 66.22-66.23 36.577 0 66.227 29.66 66.217 66.23z" transform="matrix(.22826 0 0 .22826 84.839 59.688)" style="stroke-linejoin:round;stroke:#fff;stroke-linecap:round;stroke-width:16.429;fill:#969696"/><rect id="rect2911" width="159.45" height="135.12" x="106.3" y="126.97" transform="translate(1.4739 -104.01)" style="stroke-linejoin:round;stroke:#fff;stroke-linecap:round;stroke-width:3.75;fill:#000"/><rect id="rect2912" width="132.31" height="75.936" x="121.34" y="66.487" rx="5.398" ry="5.398" style="stroke-linejoin:round;stroke:#fff;stroke-linecap:round;stroke-width:3.75;fill:#969696"/><path id="rect2914" d="m25.406 110.97c-3.324 0-6 2.67-6 6v161.59c0 3.33 2.676 6 6 6h321.25c3.32 0 6-2.67 6-6v-161.59c0-3.33-2.68-6-6-6h-321.25zm25.782 54.44h269.78c11.64 0 21 19.24 21 43.15s-9.36 43.16-21 43.16h-269.78c-11.64 0-21.034-19.25-21.034-43.16s9.394-43.15 21.032-43.15z" transform="translate(1.4739 -104.01)" style="stroke-linejoin:round;stroke:#000;stroke-linecap:round;stroke-width:3.75;fill:#000"/><path id="rect2910" d="m53.474 61.613c-11.638 0-21 19.154-21 42.937 0 23.78 9.362 42.91 21 42.91h54.316v-85.847h-54.316zm213.75 0v85.847h54.41c11.64 0 21-19.13 21-42.91 0-23.783-9.36-42.937-21-42.937h-54.41z" style="stroke-linejoin:round;stroke:#fff;stroke-linecap:round;stroke-width:3.75;fill:none"/><path id="path2926" d="m304.35 103.36v-48.352" style="stroke:#000;stroke-width:3.75;fill:none"/><path id="path2927" d="m52.361 103.87v-48.353" style="stroke:#000;stroke-width:3.75;fill:none"/><g id="g2933" transform="translate(4.7109 -94.346)"><path id="path2930" d="m133.14 178.8h71.62" style="stroke:#000;stroke-linecap:square;stroke-width:7.5;fill:none"/><path id="path2931" d="m133.13 198.8h99.31" style="stroke:#000;stroke-linecap:square;stroke-width:7.5;fill:none"/><path id="path2932" d="m133.19 218.8h71.88" style="stroke:#000;stroke-linecap:square;stroke-width:7.5;fill:none"/></g><path id="path2953" d="m18.374 49.263h6.137v-23.753h325.27v24.473h5.79" style="stroke:#fff;stroke-width:3.75;fill:none"/></g><metadata/></svg>